<svg width="57" height="76" viewBox="0 0 57 76" fill="none" xmlns="http://www.w3.org/2000/svg">
<path d="M28.5 44.3334C36.4968 44.3334 43 37.7056 43 29.5556C43 21.4057 36.4968 14.7778 28.5 14.7778C20.5032 14.7778 14 21.4057 14 29.5556C14 37.7056 20.5032 44.3334 28.5 44.3334ZM28.5 22.1667C32.4984 22.1667 35.75 25.4806 35.75 29.5556C35.75 33.6306 32.4984 36.9445 28.5 36.9445C24.5016 36.9445 21.25 33.6306 21.25 29.5556C21.25 25.4806 24.5016 22.1667 28.5 22.1667Z" fill="white"/>
<path d="M26.4338 74.248C27.0367 74.701 27.7591 74.9444 28.5 74.9444C29.2409 74.9444 29.9633 74.701 30.5662 74.248C31.6492 73.4424 57.103 54.1103 56.9997 29.978C56.9997 13.4489 44.214 0 28.5 0C12.786 0 0.000313631 13.4489 0.000313631 29.9593C-0.102998 54.1103 25.3508 73.4424 26.4338 74.248ZM28.5 7.4945C40.2882 7.4945 49.8748 17.5784 49.8748 29.9968C49.9496 46.6271 34.2427 61.5599 28.5 66.4575C22.7609 61.5561 7.05042 46.6196 7.12524 29.978C7.12524 17.5784 16.7118 7.4945 28.5 7.4945Z" fill="white"/>
</svg>
